<?xml version="1.0" standalone="no"?>
<!DOCTYPE svg PUBLIC "-//W3C//DTD SVG 20010904//EN"
 "http://www.w3.org/TR/2001/REC-SVG-20010904/DTD/svg10.dtd">
<svg version="1.0" xmlns="http://www.w3.org/2000/svg"
 width="512.000000pt" height="512.000000pt" viewBox="0 0 512.000000 512.000000"
 preserveAspectRatio="xMidYMid meet">
<metadata>
Created by potrace 1.14, written by Peter Selinger 2001-2017
</metadata>
<g transform="translate(0.000000,512.000000) scale(0.100000,-0.100000)"
fill="#000000" stroke="none">
<path d="M2218 4585 c-2 -1 -37 -6 -78 -9 -124 -11 -161 -16 -250 -33 -47 -8
-96 -17 -110 -20 -71 -12 -268 -68 -367 -104 -166 -60 -399 -184 -479 -254 -7
-5 -38 -32 -70 -60 -80 -67 -179 -179 -210 -239 -56 -106 -106 -272 -130 -431
-3 -22 -8 -51 -10 -65 -24 -155 -24 -662 1 -870 1 -14 6 -54 9 -90 7 -68 33
-271 42 -330 10 -69 34 -216 38 -240 3 -14 14 -74 25 -135 11 -60 24 -130 30
-155 5 -25 12 -60 16 -77 17 -102 78 -341 91 -361 22 -33 98 -109 169 -169
159 -133 326 -229 600 -344 66 -28 314 -99 394 -114 14 -2 39 -7 54 -11 34 -7
63 -11 137 -19 30 -4 61 -8 68 -11 28 -9 214 -18 367 -18 196 0 362 10 475 30
19 3 49 8 65 10 17 2 53 8 80 14 28 6 59 12 70 14 133 26 375 109 540 187 52
24 229 124 249 140 6 5 40 30 75 55 104 75 223 183 252 230 19 31 92 328 113
458 3 19 10 55 15 78 6 24 13 59 16 78 3 19 15 85 25 145 11 61 22 130 25 155
3 25 8 57 11 73 2 15 6 39 8 55 8 49 15 106 26 212 6 58 12 119 15 135 24 181
25 802 1 877 -3 7 -7 36 -10 63 -8 71 -50 240 -80 319 -47 123 -88 187 -176
276 -234 234 -646 410 -1185 505 -16 3 -52 8 -80 11 -27 3 -57 7 -65 10 -8 3
-39 7 -70 10 -30 2 -95 8 -145 13 -79 8 -579 13 -587 6z"/>
</g>
</svg>
